<?xml version="1.0" encoding="utf-8"?>
<!-- Generator: Adobe Illustrator 26.1.0, SVG Export Plug-In . SVG Version: 6.00 Build 0)  -->
<svg version="1.1" id="Layer_1" xmlns="http://www.w3.org/2000/svg" xmlns:xlink="http://www.w3.org/1999/xlink" x="0px" y="0px"
	 viewBox="0 0 186.72 33.31" style="enable-background:new 0 0 186.72 33.31;" xml:space="preserve">
<style type="text/css">
	.st0{fill:none;stroke:#000000;stroke-miterlimit:10;}
	.st1{fill:#FFFFFF;}
	.st2{fill:#0C0F19;}
</style>
<text transform="matrix(1 0 0 1 -378.9736 645.1082)" style="font-family:'PoiretOne-Regular'; font-size:67.9158px;">PIC</text>
<text transform="matrix(1 0 0 1 -331.3472 367.2649)" style="font-family:'PoiretOne-Regular'; font-size:34.9512px;">PICVAULT</text>
<g>
	<path d="M-526.25,380.66h1.15c2.42,0,4.49,0.83,6.19,2.5c1.7,1.67,2.55,3.63,2.55,5.89c0,2.26-0.88,4.21-2.64,5.84
		c-1.76,1.63-3.7,2.45-5.82,2.45h-0.28v9.54h-1.15V380.66z M-525.09,396.35h0.28c1.96,0,3.66-0.72,5.12-2.17
		c1.46-1.44,2.18-3.16,2.18-5.14c0-1.98-0.74-3.7-2.22-5.17c-1.48-1.47-3.18-2.2-5.09-2.2h-0.28V396.35z"/>
	<path d="M-512.41,380.66h1.15v26.21h-1.15V380.66z"/>
	<path d="M-493.08,407.25h-0.38c-2.4,0-4.64-0.63-6.71-1.89c-2.07-1.26-3.71-2.93-4.91-5.02c-1.2-2.08-1.8-4.3-1.8-6.66
		c0-3.7,1.34-6.89,4.02-9.56c2.68-2.67,5.88-4,9.61-4c2.49,0,4.86,0.65,7.1,1.96v1.29c-2.19-1.49-4.56-2.24-7.1-2.24
		c-3.42,0-6.36,1.23-8.81,3.69c-2.45,2.46-3.67,5.41-3.67,8.84c0,3.44,1.22,6.39,3.67,8.86c2.45,2.47,5.38,3.71,8.81,3.71
		c2.54,0,4.91-0.75,7.1-2.24v1.29C-488.28,406.6-490.59,407.25-493.08,407.25z"/>
	<path d="M-449.53,380.03l13.11,26.84h-1.22l-4.96-10h-14.02l-4.89,10h-1.08L-449.53,380.03z M-449.64,382.44l-6.54,13.42h13.14
		L-449.64,382.44z"/>
	<path d="M-426.64,407.36h-0.35c-2.14,0-3.96-0.75-5.43-2.24c-1.48-1.49-2.22-3.37-2.22-5.63v-18.84h1.15v18.8
		c0,1.98,0.64,3.62,1.92,4.93c1.28,1.31,2.87,1.96,4.75,1.96s3.46-0.65,4.74-1.94c1.27-1.29,1.9-2.94,1.9-4.95v-18.8h1.15v18.77
		c0,2.28-0.74,4.18-2.22,5.68S-424.52,407.36-426.64,407.36z"/>
	<path d="M-412.62,380.66v25.2h8.11v1.01h-9.26v-26.21H-412.62z"/>
	<path d="M-392.66,380.66v1.01h-5.98v25.2h-1.15v-25.2h-6.04v-1.01H-392.66z"/>
</g>
<text transform="matrix(1 0 0 1 -289.6074 496.8787)" style="font-family:'Aldrich-Regular'; font-size:34.9512px;">PICVAULT</text>
<text transform="matrix(1 0 0 1 -328.7612 227.4866)" style="font-family:'Aldrich-Regular'; font-size:34.9512px;">PICVAULT</text>
<text transform="matrix(1 0 0 1 -328.7612 632.3279)" style="font-family:'Aldrich-Regular'; font-size:34.9512px;">VAULT</text>
<polyline class="st0" points="-452.85,375.86 -471.18,409.19 -489.51,375.86 "/>
<g>
	<path class="st1" d="M5.15,29.36V4.89h13.4c3.96,0,5.94,1.99,5.94,5.96v3.48c0,3.97-1.98,5.96-5.94,5.96h-9.9v9.08H5.15z
		 M8.65,16.78h9.71c0.93,0,1.6-0.2,2.01-0.61c0.41-0.41,0.62-1.08,0.62-2.01v-3.14c0-0.93-0.21-1.6-0.62-2.01
		c-0.41-0.41-1.08-0.61-2.01-0.61H8.65V16.78z"/>
	<path class="st1" d="M32.87,4.89v24.47h-3.5V4.89H32.87z"/>
	<path class="st1" d="M39.15,8.39c0-0.48,0.09-0.93,0.27-1.36c0.18-0.43,0.43-0.8,0.75-1.11s0.69-0.56,1.12-0.75
		c0.43-0.19,0.88-0.28,1.36-0.28h13.28c0.48,0,0.93,0.09,1.36,0.28c0.43,0.19,0.8,0.44,1.12,0.75s0.57,0.68,0.75,1.11
		c0.18,0.43,0.27,0.88,0.27,1.36v3.16h-3.5V8.39H42.65v17.48h13.28v-3.14h3.5v3.14c0,0.48-0.09,0.93-0.27,1.36
		c-0.18,0.43-0.43,0.8-0.75,1.12s-0.69,0.57-1.12,0.75c-0.43,0.18-0.88,0.27-1.36,0.27H42.65c-0.48,0-0.93-0.09-1.36-0.27
		c-0.43-0.18-0.8-0.43-1.12-0.75s-0.57-0.69-0.75-1.12c-0.18-0.43-0.27-0.88-0.27-1.36V8.39z"/>
	<path class="st1" d="M120.87,4.89h3.5v20.97h13.98V4.89h3.5v20.97c0,0.48-0.09,0.93-0.27,1.36c-0.18,0.43-0.43,0.8-0.75,1.12
		s-0.69,0.57-1.12,0.75c-0.43,0.18-0.88,0.27-1.36,0.27h-13.98c-0.48,0-0.93-0.09-1.36-0.27c-0.43-0.18-0.8-0.43-1.12-0.75
		s-0.57-0.69-0.75-1.12c-0.18-0.43-0.27-0.88-0.27-1.36V4.89z"/>
	<path class="st1" d="M151.62,4.89v20.97h12.58v3.5h-16.08V4.89H151.62z"/>
	<path class="st1" d="M162.1,4.89h19.58v3.5h-8.04v20.97h-3.5V8.39h-8.04V4.89z"/>
	<polygon class="st1" points="117.19,29.36 101.84,4.89 101.33,4.89 101.33,4.88 95.26,4.88 82.85,25.02 70.48,4.88 64.37,4.88 
		79.72,29.36 80.23,29.36 80.23,29.36 86.3,29.36 98.71,9.23 104,17.83 96.05,17.83 96.05,22.83 106.62,22.83 106.62,22.1 
		111.08,29.36 	"/>
</g>
<g>
	<path d="M-398.43,496.88l-15.35-24.47h6.11l12.38,20.14l12.4-20.14h6.08l-15.34,24.47H-398.43z"/>
</g>
<g>
	<path d="M-376.31,472.41l15.34,24.47h-6.1l-12.38-20.14l-12.4,20.14h-6.08l15.34-24.47H-376.31z"/>
</g>
<g>
	<rect x="-382.1" y="485.36" width="10.57" height="5"/>
</g>
<path class="st2" d="M364.72,1.6c-16.85-0.64-30.71,12.83-30.71,29.54c0,0.66,0.03,1.32,0.07,1.97c-0.03,0.76-0.05,1.54-0.05,2.36
	v25.94c0,6.01,4.87,10.88,10.88,10.88l0,0c6.01,0,10.88-4.87,10.88-10.88v-1.75c2.48,0.68,5.09,1.04,7.78,1.04
	c16.71,0,30.18-13.86,29.54-30.71C392.53,14.66,380.04,2.18,364.72,1.6z M363.51,51.41l-18.25-32.08h13.31l5.46,9.6l5.5-9.6h12.36
	L363.51,51.41z"/>
</svg>
